<svg width="460" height="192" viewBox="0 0 460 192" fill="none" xmlns="http://www.w3.org/2000/svg" role="img" aria-label="Daily coding time by language, past 7 days"><style>.t{font:600 14.5px 'Segoe UI', Ubuntu, Sans-Serif;}.m{font:400 10px 'Segoe UI', Ubuntu, Sans-Serif;}.n{font:600 11.5px 'Segoe UI', Ubuntu, Sans-Serif;}.v{font:500 11px ui-monospace, 'SF Mono', Menlo, Consolas, 'Liberation Mono', monospace;}.p{font:400 10px ui-monospace, 'SF Mono', Menlo, Consolas, 'Liberation Mono', monospace;}.tt{font:600 11px ui-monospace, 'SF Mono', Menlo, Consolas, 'Liberation Mono', monospace;}.fade{opacity:0;animation:fd .6s ease-out forwards;}.row{opacity:0;animation:fd .5s ease-out forwards;}.fill{transform:scaleX(0);transform-origin:left center;transform-box:fill-box;animation:gr .8s cubic-bezier(.2,.6,.2,1) forwards;}@keyframes fd{to{opacity:1}}@keyframes gr{to{transform:scaleX(1)}}@media (prefers-reduced-motion:reduce){.fade,.row{animation:none;opacity:1}.fill{animation:none;transform:none}}</style><defs><linearGradient id="g" x1="0" y1="0" x2="1" y2="0"><stop offset="0" stop-color="#FF652F"/><stop offset="1" stop-color="#FFC857"/></linearGradient></defs><rect x="0.5" y="0.5" width="459" height="191" rx="4.5" fill="#0D1117" stroke="#243042"/><g class="fade"><g stroke="#FF652F" stroke-width="1.6" stroke-linecap="round"><circle cx="29" cy="22" r="7"/><path d="M29 18v4h3.2"/></g><text x="44" y="27" class="t" fill="#FF652F">Daily Coding Time</text><text x="438" y="27" text-anchor="end" class="m" fill="#9CA3AF">last 7 days &#183; WakaTime</text></g><g class="row" style="animation-delay:0.15s"><circle cx="27" cy="51.5" r="3.5" fill="#F1E05A"/><text x="38" y="55" class="n" fill="#E5E7EB">JavaScript</text><rect x="160" y="47" width="140" height="6" rx="3" fill="#21262D"/><rect class="fill" style="animation-delay:0.25s" x="160" y="47" width="57.9" height="6" rx="3" fill="url(#g)"/><text x="392" y="55" text-anchor="end" class="v" fill="#E5E7EB">15h 49m</text><text x="438" y="55" text-anchor="end" class="p" fill="#9CA3AF">41.3%</text></g><g class="row" style="animation-delay:0.23s"><circle cx="27" cy="69.5" r="3.5" fill="#4A93E8"/><text x="38" y="73" class="n" fill="#E5E7EB">Markdown</text><rect x="160" y="65" width="140" height="6" rx="3" fill="#21262D"/><rect class="fill" style="animation-delay:0.33s" x="160" y="65" width="33.9" height="6" rx="3" fill="url(#g)"/><text x="392" y="73" text-anchor="end" class="v" fill="#E5E7EB">9h 16m</text><text x="438" y="73" text-anchor="end" class="p" fill="#9CA3AF">24.2%</text></g><g class="row" style="animation-delay:0.31s"><circle cx="27" cy="87.5" r="3.5" fill="#178600"/><text x="38" y="91" class="n" fill="#E5E7EB">C#</text><rect x="160" y="83" width="140" height="6" rx="3" fill="#21262D"/><rect class="fill" style="animation-delay:0.41s" x="160" y="83" width="14.9" height="6" rx="3" fill="url(#g)"/><text x="392" y="91" text-anchor="end" class="v" fill="#E5E7EB">4h 03m</text><text x="438" y="91" text-anchor="end" class="p" fill="#9CA3AF">10.6%</text></g><g class="row" style="animation-delay:0.39s"><circle cx="27" cy="105.5" r="3.5" fill="#663399"/><text x="38" y="109" class="n" fill="#E5E7EB">CSS</text><rect x="160" y="101" width="140" height="6" rx="3" fill="#21262D"/><rect class="fill" style="animation-delay:0.49s" x="160" y="101" width="11.7" height="6" rx="3" fill="url(#g)"/><text x="392" y="109" text-anchor="end" class="v" fill="#E5E7EB">3h 11m</text><text x="438" y="109" text-anchor="end" class="p" fill="#9CA3AF">8.4%</text></g><g class="row" style="animation-delay:0.47s"><circle cx="27" cy="123.5" r="3.5" fill="#8B949E"/><text x="38" y="127" class="n" fill="#E5E7EB">Other</text><rect x="160" y="119" width="140" height="6" rx="3" fill="#21262D"/><rect class="fill" style="animation-delay:0.57s" x="160" y="119" width="8.0" height="6" rx="3" fill="url(#g)"/><text x="392" y="127" text-anchor="end" class="v" fill="#E5E7EB">2h 10m</text><text x="438" y="127" text-anchor="end" class="p" fill="#9CA3AF">5.7%</text></g><g class="row" style="animation-delay:0.55s"><circle cx="27" cy="141.5" r="3.5" fill="#E34C26"/><text x="38" y="145" class="n" fill="#E5E7EB">HTML</text><rect x="160" y="137" width="140" height="6" rx="3" fill="#21262D"/><rect class="fill" style="animation-delay:0.65s" x="160" y="137" width="7.3" height="6" rx="3" fill="url(#g)"/><text x="392" y="145" text-anchor="end" class="v" fill="#E5E7EB">1h 59m</text><text x="438" y="145" text-anchor="end" class="p" fill="#9CA3AF">5.2%</text></g><g class="row" style="animation-delay:0.63s"><circle cx="27" cy="159.5" r="3.5" fill="#512BD4"/><text x="38" y="163" class="n" fill="#E5E7EB">XAML</text><rect x="160" y="155" width="140" height="6" rx="3" fill="#21262D"/><rect class="fill" style="animation-delay:0.73s" x="160" y="155" width="6.0" height="6" rx="3" fill="url(#g)"/><text x="392" y="163" text-anchor="end" class="v" fill="#E5E7EB">41m</text><text x="438" y="163" text-anchor="end" class="p" fill="#9CA3AF">1.8%</text></g><g class="fade" style="animation-delay:.7s"><line x1="22" y1="171.5" x2="438" y2="171.5" stroke="#21262D"/><text x="22" y="184" class="m" fill="#9CA3AF">+3 more &#183; updated 2026-07-15</text><text x="438" y="184" text-anchor="end" class="tt" fill="#FFC857">Total 38h 16m</text></g></svg>